<?xml version="1.0" encoding="utf-8"?>
<!-- Generator: Adobe Illustrator 24.1.1, SVG Export Plug-In . SVG Version: 6.00 Build 0)  -->
<svg version="1.1" id="Layer_1" xmlns="http://www.w3.org/2000/svg" xmlns:xlink="http://www.w3.org/1999/xlink" x="0px" y="0px"
	 viewBox="0 0 714.9 198.98" style="enable-background:new 0 0 714.9 198.98;" xml:space="preserve">
<style type="text/css">
	.st0{fill:#FBA92A;}
	.st1{fill:#F6871F;}
	.st2{fill:#F15A22;}
</style>
<g>
	<circle class="st0" cx="46.52" cy="46.51" r="46.43"/>
	<path class="st1" d="M107.48,0.08v93.05h92.34C199.82,93.14,200.92,8.96,107.48,0.08z"/>
	<path class="st2" d="M107.27,199.06c0,0,84.18,1.09,93.05-92.34h-93.05"/>
	<rect x="0" y="106.71" class="st1" width="92.88" height="92.44"/>
	<g>
		<polygon points="578.58,35.19 578.57,148.13 595.91,148.13 595.9,35.19 		"/>
		<path d="M699.69,105.58c-2.63,16.96-17.29,29.94-34.99,29.94c-19.56,0-35.41-15.86-35.41-35.41s15.86-35.41,35.41-35.41
			c9.14,0,17.47,3.47,23.75,9.15l-41.73,23.58l9.79,14.26l44.1-25.39l10.72-6.09c-7.74-18.1-25.7-30.79-46.63-30.79
			c-28,0-50.69,22.7-50.69,50.69s22.7,50.69,50.69,50.69c24.98,0,45.73-18.08,49.91-41.86L699.69,105.58z"/>
		<path d="M318.04,35.2v37.46c-0.01-0.01,0.01,0.01,0,0l-0.03,7.67h-4.81V68.46c-8.52-6.5-19.16-10.38-30.71-10.38
			c-27.98,0-50.67,22.68-50.67,50.67s22.68,50.67,50.67,50.67c11.53,0,22.16-3.86,30.68-10.35v-11.59h4.81l0.06,7.36
			c0.02-0.02,0,0,0,0v12.21h16.85V35.2H318.04z M282.49,143.75c-19.33,0-35-15.67-35-35s15.67-35,35-35c19.33,0,35,15.67,35,35
			S301.82,143.75,282.49,143.75z"/>
		<path d="M424.86,51.63v54.47c-0.04,15.42-12.55,27.9-27.98,27.9h0c-15.46,0-27.98-12.53-27.98-27.98v-3.64h0V51.63h-17.38v50.75
			v0.38v9.27c0,21.46,17.4,38.85,38.85,38.85h4.48c9.5,0,18.2-3.41,24.95-9.07v-9.29h5.03l0.04,4.16c0.1-0.12,0,0,0,0v11.45h17.38
			v-96.5H424.86z"/>
		<path d="M477.88,173.9v-37.46c0.01,0.01-0.01-0.01,0,0l0.03-7.67h4.81v11.87c8.52,6.5,19.16,10.38,30.71,10.38
			c27.98,0,50.67-22.68,50.67-50.67s-22.68-50.67-50.67-50.67c-11.53,0-22.16,3.86-30.68,10.35v11.59h-4.81l-0.06-7.36
			c-0.02,0.02,0,0,0,0V52.05h-16.85V173.9H477.88z M513.43,65.35c19.33,0,35,15.67,35,35s-15.67,35-35,35c-19.33,0-35-15.67-35-35
			S494.1,65.35,513.43,65.35z"/>
	</g>
</g>
</svg>
